<?xml version="1.0" standalone="no"?>
<!DOCTYPE svg PUBLIC "-//W3C//DTD SVG 20010904//EN"
 "http://www.w3.org/TR/2001/REC-SVG-20010904/DTD/svg10.dtd">
<svg version="1.0" xmlns="http://www.w3.org/2000/svg"
 width="306.000000pt" height="456.000000pt" viewBox="0 0 306.000000 456.000000"
 preserveAspectRatio="xMidYMid meet">

<g transform="translate(0.000000,456.000000) scale(0.100000,-0.100000)"
fill="#000000" stroke="none">
<path d="M99 4470 c-21 -12 -43 -65 -35 -85 8 -21 28 -19 22 3 -3 9 1 31 9 47
12 28 13 22 15 -75 1 -96 2 -103 16 -85 11 15 14 42 12 109 -3 90 -9 103 -39
86z"/>
<path d="M393 4460 c-3 -11 -12 -20 -19 -20 -8 0 -14 -4 -14 -10 0 -5 7 -10
16 -10 14 0 16 -9 12 -50 -3 -27 -1 -50 3 -50 5 0 9 -7 9 -15 0 -17 35 -21 45
-5 4 7 14 5 27 -4 13 -9 27 -12 37 -7 17 8 89 7 98 -3 3 -3 15 0 27 6 17 8 15
5 -7 -20 -32 -33 -34 -75 -4 -80 29 -6 47 17 47 59 0 36 45 128 63 129 4 0 7
-15 7 -32 0 -18 4 -38 8 -44 9 -13 100 -16 108 -3 3 5 12 2 20 -6 9 -8 21 -12
27 -8 7 4 19 6 28 5 12 -2 18 8 23 40 5 32 9 39 16 28 5 -8 10 -25 10 -37 0
-12 5 -25 10 -28 10 -6 13 -1 26 50 6 24 8 26 11 10 12 -63 14 -66 36 -63 13
2 23 11 25 23 3 18 2 19 -8 2 -18 -28 -30 -10 -30 44 0 42 -3 50 -17 47 -9 -2
-20 -14 -23 -28 l-6 -25 -7 28 c-8 30 -37 37 -37 10 -1 -17 -1 -17 -11 0 -17
28 -29 19 -29 -22 0 -44 -8 -71 -21 -71 -5 0 -9 25 -9 55 l0 55 -39 0 c-35 0
-40 -3 -50 -31 -6 -18 -11 -43 -11 -55 0 -13 -4 -24 -9 -24 -14 0 -20 26 -14
64 5 32 3 36 -15 36 -11 0 -24 5 -27 10 -11 17 -25 0 -25 -29 0 -15 -7 -36
-15 -47 -13 -18 -14 -16 -15 27 0 45 0 46 -35 47 -39 2 -47 -8 -55 -61 -8 -56
-25 -50 -28 11 -3 52 -3 52 -37 52 -38 0 -46 -8 -60 -65 -14 -55 -29 -46 -33
20 -3 50 -1 55 18 55 11 0 20 5 20 10 0 6 -9 10 -20 10 -13 0 -20 7 -20 20 0
11 -5 20 -11 20 -6 0 -13 -9 -16 -20z m132 -89 c6 -21 -10 -71 -24 -71 -14 0
-24 38 -17 66 7 28 32 32 41 5z m123 -9 c4 -23 -14 -62 -27 -62 -13 0 -19 44
-9 69 10 27 32 23 36 -7z m212 -4 c0 -39 -13 -63 -29 -54 -12 8 -15 68 -4 79
17 18 33 5 33 -25z m-210 -110 c0 -34 -16 -56 -31 -41 -8 8 -7 17 6 37 21 32
25 32 25 4z"/>
<path d="M170 4351 c0 -71 13 -85 28 -33 6 21 18 46 27 57 14 19 15 17 10 -20
-10 -72 26 -86 63 -26 14 23 21 28 30 19 7 -7 12 -20 12 -31 0 -14 -5 -17 -20
-12 -24 8 -27 -10 -4 -19 9 -4 28 1 41 9 25 17 21 37 -12 65 -9 8 -13 20 -9
32 5 15 2 19 -12 16 -11 -2 -21 -16 -25 -35 -3 -18 -13 -40 -20 -50 -12 -14
-15 -11 -19 33 -6 59 -30 71 -54 27 l-15 -28 -1 28 c0 15 -4 27 -10 27 -6 0
-10 -26 -10 -59z"/>
<path d="M1413 3791 c-294 -47 -534 -260 -614 -546 -32 -112 -32 -278 0 -390
37 -133 93 -227 196 -330 153 -153 311 -219 525 -219 214 0 372 66 525 219
153 153 219 311 219 525 0 214 -66 372 -219 525 -102 102 -198 159 -325 194
-84 24 -230 34 -307 22z m-303 -581 l5 -225 45 -2 45 -1 1 141 c0 91 4 150 12
164 17 31 77 41 114 20 15 -9 28 -12 28 -7 0 6 7 10 15 10 11 0 15 12 15 45 0
59 25 85 80 85 33 0 40 -3 40 -19 0 -15 -8 -21 -32 -23 -31 -3 -33 -6 -36 -45
-3 -42 -2 -43 27 -43 41 0 41 -25 1 -33 l-30 -6 0 -166 0 -165 -25 0 -25 0 0
170 c0 130 -3 170 -13 170 -9 0 -11 -20 -9 -80 l4 -80 -61 0 -62 0 3 -67 3
-68 33 -3 c32 -3 32 -3 32 42 0 42 2 46 25 46 22 0 25 -4 25 -36 0 -36 -15
-73 -34 -86 -20 -14 -93 -9 -106 7 -15 18 -31 20 -28 3 2 -9 -18 -14 -69 -16
l-73 -3 0 244 c0 134 3 247 7 251 4 4 14 5 23 4 13 -3 16 -36 20 -228z m870
200 c0 -28 -3 -30 -35 -30 -30 0 -35 3 -35 23 0 31 7 37 42 37 24 0 28 -4 28
-30z m-120 -45 c0 -52 1 -55 25 -55 18 0 25 -5 25 -20 0 -15 -7 -20 -25 -20
l-25 0 0 -145 c0 -154 -1 -152 48 -146 6 1 12 -7 12 -19 0 -17 -6 -20 -39 -20
-64 0 -71 18 -71 194 l0 149 -37 -6 c-20 -4 -40 -12 -45 -19 -4 -7 -8 -82 -8
-166 0 -153 0 -153 -22 -150 -23 3 -23 5 -26 186 l-2 182 25 0 c17 0 25 -6 25
-17 1 -17 1 -17 11 0 6 11 22 17 44 17 l35 0 0 48 c0 53 4 62 32 62 15 0 18
-8 18 -55z m-237 -56 c33 -18 37 -28 37 -111 l0 -78 -55 0 -56 0 3 -67 c3 -63
5 -68 27 -71 29 -4 41 12 41 56 0 25 4 32 20 32 17 0 20 -7 20 -47 0 -61 -20
-83 -75 -83 -76 0 -80 8 -83 179 -3 150 -3 151 22 176 27 27 64 32 99 14z
m347 -184 c0 -178 -1 -185 -20 -185 -19 0 -20 7 -20 185 0 178 1 185 20 185
19 0 20 -7 20 -185z m-300 -315 c0 -6 -51 -10 -130 -11 -71 -1 -140 -2 -152
-2 -12 -1 -23 4 -26 11 -3 9 34 12 152 12 97 0 156 -4 156 -10z m-282 -182 l9
-43 8 38 c10 50 25 57 26 13 3 -93 -1 -121 -11 -81 -6 24 -8 26 -9 8 -1 -27
-18 -31 -24 -5 -4 13 -5 11 -6 -5 0 -13 -5 -23 -11 -23 -6 0 -10 30 -10 70 0
78 14 92 28 28z m106 -38 c3 -36 3 -57 0 -47 -3 9 -12 17 -19 17 -7 0 -16 -8
-19 -17 -3 -10 -3 11 -1 45 8 108 30 109 39 2z m39 53 c-4 -11 -3 -14 5 -9 7
4 12 14 12 22 0 8 5 14 11 14 7 0 8 -7 3 -17 -10 -22 -9 -69 0 -103 l8 -25
-22 25 c-12 14 -19 20 -17 15 3 -6 2 -17 -4 -25 -6 -10 -9 10 -9 58 0 44 4 71
10 67 5 -3 6 -13 3 -22z m80 20 c-7 -2 -13 -16 -13 -29 0 -13 6 -24 13 -25 10
0 10 -2 0 -6 -15 -6 -18 -53 -3 -53 6 0 10 -4 10 -10 0 -5 -9 -10 -20 -10 -18
0 -20 7 -20 70 0 66 1 70 23 69 12 0 16 -3 10 -6z m65 -21 c2 -12 -1 -22 -7
-22 -6 0 -12 10 -12 23 -1 15 -3 17 -6 5 -2 -9 3 -28 12 -42 22 -33 16 -71
-10 -71 -14 0 -21 8 -23 28 -4 32 15 37 21 5 4 -21 4 -20 6 3 0 16 -5 29 -14
33 -15 5 -21 47 -8 60 14 13 38 1 41 -22z"/>
<path d="M1262 3268 c-6 -6 -12 -36 -12 -65 l0 -53 35 0 36 0 -3 63 c-3 53 -6
62 -23 65 -11 1 -26 -3 -33 -10z"/>
<path d="M1557 3273 c-4 -3 -7 -33 -7 -65 l0 -59 33 3 c31 3 32 5 35 51 2 27
-2 55 -9 63 -12 15 -41 19 -52 7z"/>
<path d="M1472 2590 c0 -14 2 -19 5 -12 2 6 2 18 0 25 -3 6 -5 1 -5 -13z"/>
</g>
</svg>
